<?xml version="1.0" encoding="utf-8"?>
<!-- Generator: Adobe Illustrator 27.1.1, SVG Export Plug-In . SVG Version: 6.00 Build 0)  -->
<svg version="1.1" id="Layer_1" xmlns="http://www.w3.org/2000/svg" xmlns:xlink="http://www.w3.org/1999/xlink" x="0px" y="0px"
	 viewBox="0 0 1080 1080" style="enable-background:new 0 0 1080 1080;" xml:space="preserve">
<path d="M729.24,564.37c-18.54-18.54-43.2-28.75-69.42-28.75c-26.23,0-50.88,10.21-69.42,28.75c-18.54,18.54-28.75,43.2-28.75,69.42
	c0,20.15,7.69,41.12,22.85,62.31c14.72,20.56,37.07,42.15,66.43,64.17c2.59,1.94,5.66,2.96,8.89,2.96c3.23,0,6.31-1.02,8.9-2.96
	c29.36-22.02,51.71-43.61,66.42-64.17C750.3,674.9,758,653.94,758,633.79C758,607.56,747.78,582.91,729.24,564.37z M691.05,633.79
	c0,17.27-13.99,31.26-31.26,31.26c-17.26,0-31.25-13.99-31.25-31.26h0.02c-0.45-17.25,13.18-31.61,30.44-32.05
	c0.27,0,0.55-0.01,0.82-0.01c16.89,0,30.79,13.47,31.23,30.45C691.07,632.72,691.07,633.25,691.05,633.79z M730.89,446.76
	c-10.72-25.34-26.06-48.1-45.61-67.64c-19.54-19.54-42.31-34.89-67.65-45.62c-26.24-11.1-54.11-16.72-82.84-16.72
	c-28.73,0-56.6,5.62-82.84,16.72c-25.34,10.72-48.1,26.07-67.64,45.62c-19.54,19.54-34.88,42.3-45.59,67.64
	C327.62,473,322,500.87,322,529.6c0,28.72,5.63,56.6,16.72,82.84c10.72,25.34,26.06,48.1,45.59,67.64
	c19.54,19.54,42.29,34.88,67.63,45.6c26.23,11.11,54.1,16.73,82.82,16.73c19.71,0,39.22-2.69,58.01-8l7.03-1.99l-5.04-5.29
	c-11.78-12.39-21.38-24.86-28.54-37.07l-2.98-5.09l-4.04,4.29c-8.03,8.56-16.48,13.08-24.42,13.08c-10.25,0-20.97-7.27-30.99-21.01
	c-9.64-13.23-18.04-31.66-24.45-53.56h70.38l0.36-4.02c0.92-10.3,3.29-20.41,7.05-30.04l2.34-6.01h-88.89
	c-4.76-31.56-5.63-63.6-2.6-95.37h133.6c1.16,12.16,1.75,24.69,1.75,37.28v9.28l6.42-3.29c9.45-4.83,19.53-8.25,29.96-10.17
	l3.68-0.68l-0.07-3.74c-0.18-9.69-0.67-19.32-1.46-28.67h61.64c2.67,12.11,4.02,24.64,4.02,37.27v4.76l2.4,1.23
	c10.69,5.48,20.35,12.61,28.73,21.2l6.48,6.64l1.07-9.21c0.95-8.17,1.43-16.45,1.43-24.62C747.62,500.87,741.99,473,730.89,446.76z
	 M372.08,587.7c-6.67-18.68-10.03-38.21-10-58.1c-0.02-12.53,1.32-25.06,4-37.29h61.67c-1.03,12.13-1.56,24.65-1.56,37.28
	c-0.04,19.36,1.26,38.89,3.86,58.1H372.08z M392.64,627.78h45.13l1.27,4.92l0.01,0.02l0.01,0.03c5.31,19.61,12.05,37.1,20.09,52.17
	C432.35,671.9,409.64,652.39,392.64,627.78z M433.14,452.26h-52.86c17.11-34.16,44.67-61.39,78.9-78.04
	C447.71,395.73,438.81,422.37,433.14,452.26z M474.14,452.26c5.72-26.7,14.22-49.75,24.73-66.94
	c10.52-17.21,22.52-27.28,33.81-28.38l2.09-0.09l2.32,0.12c11.28,1.18,23.26,11.29,33.74,28.5c10.46,17.16,18.94,40.17,24.65,66.78
	H474.14z M636.44,452.26c-5.64-29.83-14.56-56.53-26.01-78.02c34.16,16.68,61.82,44.04,78.87,78.02H636.44z"/>
</svg>
