<svg width="1920" height="1080" viewBox="0 0 1920 1080" xmlns="http://www.w3.org/2000/svg"><rect width="1920" height="1080" fill="#66acac"/><path d="M 0,1080 C 0,1080 0,180 0,180 C 124.31282051282051,167.34615384615384 248.62564102564102,154.69230769230768 344,138 C 439.374358974359,121.3076923076923 505.81025641025644,100.5769230769231 608,118 C 710.1897435897436,135.4230769230769 848.1333333333332,191.00000000000003 977,199 C 1105.8666666666668,206.99999999999997 1225.6564102564103,167.4230769230769 1335,171 C 1444.3435897435897,174.5769230769231 1543.2410256410255,221.3076923076923 1639,230 C 1734.7589743589745,238.6923076923077 1827.3794871794871,209.34615384615387 1920,180 C 1920,180 1920,1080 1920,1080 Z" fill="#ffffff" opacity="0.09999999999999999"/><path d="M 0,1080 C 0,1080 0,360 0,360 C 93.9051282051282,343.1923076923077 187.8102564102564,326.38461538461536 293,318 C 398.1897435897436,309.61538461538464 514.6641025641027,309.6538461538462 613,334 C 711.3358974358973,358.3461538461538 791.5333333333333,406.99999999999994 911,398 C 1030.4666666666667,389.00000000000006 1189.202564102564,322.3461538461539 1305,314 C 1420.797435897436,305.6538461538461 1493.6564102564103,355.6153846153846 1589,373 C 1684.3435897435897,390.3846153846154 1802.1717948717949,375.19230769230774 1920,360 C 1920,360 1920,1080 1920,1080 Z" fill="#ffffff" opacity="0.19999999999999998"/><path d="M 0,1080 C 0,1080 0,540 0,540 C 89.0025641025641,524.2179487179487 178.0051282051282,508.43589743589746 292,532 C 405.9948717948718,555.5641025641025 544.9820512820513,618.474358974359 662,600 C 779.0179487179487,581.525641025641 874.0666666666668,481.6666666666667 955,481 C 1035.9333333333332,480.3333333333333 1102.751282051282,578.8589743589744 1225,601 C 1347.248717948718,623.1410256410256 1524.9282051282053,568.8974358974359 1650,546 C 1775.0717948717947,523.1025641025641 1847.5358974358974,531.551282051282 1920,540 C 1920,540 1920,1080 1920,1080 Z" fill="#ffffff" opacity="0.3"/><path d="M 0,1080 C 0,1080 0,720 0,720 C 89.41794871794875,678.5307692307692 178.8358974358975,637.0615384615385 270,654 C 361.1641025641025,670.9384615384615 454.0743589743589,746.2846153846154 584,773 C 713.9256410256411,799.7153846153846 880.8666666666668,777.8000000000001 986,743 C 1091.1333333333332,708.1999999999999 1134.4589743589743,660.5153846153846 1220,668 C 1305.5410256410257,675.4846153846154 1433.297435897436,738.1384615384616 1557,756 C 1680.702564102564,773.8615384615384 1800.351282051282,746.9307692307692 1920,720 C 1920,720 1920,1080 1920,1080 Z" fill="#ffffff" opacity="0.39999999999999997"/><path d="M 0,1080 C 0,1080 0,900 0,900 C 115.1,898.4333333333334 230.2,896.8666666666667 332,879 C 433.8,861.1333333333333 522.3,826.9666666666666 634,838 C 745.7,849.0333333333334 880.5999999999999,905.2666666666668 988,913 C 1095.4,920.7333333333332 1175.3000000000002,879.9666666666667 1263,889 C 1350.6999999999998,898.0333333333333 1446.2,956.8666666666667 1557,967 C 1667.8,977.1333333333333 1793.9,938.5666666666666 1920,900 C 1920,900 1920,1080 1920,1080 Z" fill="#ffffff" opacity="0.49999999999999994"/></svg>